<?xml version="1.0" encoding="UTF-8"?>
<svg version="1.2" xmlns="http://www.w3.org/2000/svg" width="500" height="500" baseProfile="tiny-ps" viewBox="0 0 500 500"><title>BIMI Logo</title>
<path d="M0 0 C165 0 330 0 500 0 C500 165 500 330 500 500 C335 500 170 500 0 500 C0 335 0 170 0 0 Z " fill="#E4E4E4" transform="translate(0,0)"/>
<path d="M0 0 C7.09805439 0.24188434 9.72690828 2.96244622 14.3828125 7.9296875 C22.3567545 17.08451245 28.56934969 27.17466395 34 38 C34.66 37.67 35.32 37.34 36 37 C35.67 36.67 35.34 36.34 35 36 C35 26.73724374 38.96693427 20.30998397 45.21875 13.62890625 C52.52450709 6.81103363 58.57211277 4.4571355 68.57421875 4.7109375 C75.24618532 5.27390845 81.4201448 6.511622 87.25 9.875 C89 12 89 12 89.375 14.6875 C89 17 89 17 88 18 C85.32941149 18.14115161 82.67567762 18.04247107 80 18 C81.98 20.31 83.96 22.62 86 25 C88.98495805 22.80517791 91.43592007 20.55747622 93.75 17.6875 C97.90561812 12.73931554 102.72201339 7.70701672 109.1875 6.3125 C114.04657662 7.50027429 117.02531839 9.72154573 120.04296875 13.6796875 C122.16356089 17.27749852 123.18036553 20.4550191 124.1875 24.5 C124.51105469 25.7684375 124.83460938 27.036875 125.16796875 28.34375 C126.53833276 34.36563126 127.30802767 39.83944652 127 46 C126.34 46.66 125.68 47.32 125 48 C125 49.32 125 50.64 125 52 C125.86625 52.8353125 125.86625 52.8353125 126.75 53.6875 C132.87781002 59.98552697 134.06996968 68.39750023 134.23046875 76.81640625 C134 79 134 79 132.93359375 81.1171875 C132.62550781 81.73851562 132.31742187 82.35984375 132 83 C132.433125 84.2684375 132.433125 84.2684375 132.875 85.5625 C134.84623643 91.58572243 135.03528549 97.6809605 132.4375 103.5 C131.7259375 104.7375 131.7259375 104.7375 131 106 C131.75150023 109.27773504 131.75150023 109.27773504 135 111 C134.42925015 118.60999801 129.85317287 124.37869905 125 130 C123.23717934 131.45807074 121.42162433 132.85439698 119.5625 134.1875 C118.63566406 134.86167969 117.70882813 135.53585938 116.75390625 136.23046875 C114.21116591 137.86431467 111.84050345 138.99474016 109 140 C109.42410156 140.46148437 109.84820312 140.92296875 110.28515625 141.3984375 C119.51459683 151.66238681 127.85085599 162.09336113 127.33984375 176.50390625 C126.89560211 179.7667845 125.78461775 182.24871431 124 185 C118.58461538 185.36923077 118.58461538 185.36923077 115.625 183.5 C114.820625 182.7575 114.820625 182.7575 114 182 C113.74992187 182.57363281 113.49984375 183.14726562 113.2421875 183.73828125 C111.82705424 186.31489181 110.19586516 188.10491296 108.125 190.1875 C107.44695312 190.88230469 106.76890625 191.57710937 106.0703125 192.29296875 C103.96913968 194.0254452 102.65897855 194.60055703 100 195 C100.66 195.99 101.32 196.98 102 198 C101.625 200.6875 101.625 200.6875 101 203 C95.28473799 202.50334299 91.21131147 200.88373788 86.1875 198.1875 C84.77338185 197.45981228 83.35801814 196.73453983 81.94140625 196.01171875 C81.26352051 195.66415527 80.58563477 195.3165918 79.88720703 194.95849609 C72.89204539 191.40571413 65.97842329 188.15375329 58 190 C49.36345413 194.47697155 40.88708018 207.17588121 37 216 C37.8353125 214.9790625 37.8353125 214.9790625 38.6875 213.9375 C39.8321875 212.9784375 39.8321875 212.9784375 41 212 C43.75 212.25 43.75 212.25 46 213 C45.49325789 217.43399343 43.89488631 219.66649455 41 223 C38.77261893 225.68671748 38.77261893 225.68671748 39.125 228.0625 C39.98986535 230.5208389 39.98986535 230.5208389 44 232 C45.98 228.04 47.96 224.08 50 220 C51.65 220 53.3 220 55 220 C56 221 56 221 56.3125 223.1875 C55.89783919 226.91944733 54.10770268 228.93425065 52 232 C51.21784412 234.7282504 51.21784412 234.7282504 51 237 C61.14050793 234.80288995 66.89739979 228.10260021 74 221 C77.125 220.875 77.125 220.875 80 221 C80.33 222.32 80.66 223.64 81 225 C95.02786534 229.78275694 95.02786534 229.78275694 109.0546875 229.16015625 C110.74472095 228.17488778 112.37740278 227.09276955 114 226 C114.99 226 115.98 226 117 226 C119.95041657 213.58366358 120.36211623 201.73163508 120 189 C120.66 189 121.32 189 122 189 C122.33 188.01 122.66 187.02 123 186 C124.66611905 185.957279 126.33382885 185.95936168 128 186 C130.86877012 188.86877012 129.31102212 197.63119967 129.32128906 201.49584961 C129.22814219 209.98543198 128.24115676 217.08475401 125 225 C124.74605469 225.7321875 124.49210937 226.464375 124.23046875 227.21875 C121.98344569 232.44335535 117.59311649 234.00670168 112.65625 236.0546875 C108.97903979 237.36334172 105.84540767 238.139609 101.9375 238.125 C100.761875 238.13080078 100.761875 238.13080078 99.5625 238.13671875 C97 238 97 238 94.25 237.45703125 C91.32066819 236.91591857 88.96006546 236.61948336 86 237 C83.60297202 238.88238561 82.04867919 240.9171822 80.25390625 243.37890625 C78.00935373 245.98912244 75.80076084 247.41385399 72.85766602 249.14624023 C68.85514649 251.60719369 65.73815408 253.80785197 64.19238281 258.3984375 C63.64306881 261.20085273 63.35532257 263.89970344 63.1875 266.75 C63.08997437 268.11753418 63.08997437 268.11753418 62.99047852 269.51269531 C62.97583015 273.40415819 63.00553903 275.96600054 65.78076172 278.8515625 C67.89798758 280.44162131 67.89798758 280.44162131 70.10766602 281.70605469 C73.12529876 283.76945987 73.80251698 286.64704753 75 290 C75.721875 290.886875 76.44375 291.77375 77.1875 292.6875 C79.84219472 297.53918345 80.02645256 302.58093427 79 308 C75.9588936 312.40570543 71.80129078 313.2736386 66.875 314.5625 C65.34366331 314.98536328 63.81241285 315.40853895 62.28125 315.83203125 C61.54390625 316.03135254 60.8065625 316.23067383 60.046875 316.43603516 C57.4696642 317.14612067 54.92355601 317.94374385 52.375 318.75 C44.75173573 321.029253 36.97356197 322.27962165 29.3125 319.8125 C25.21623144 317.5711455 22.56992079 314.76616089 19.5 311.3125 C17.53562047 309.59366791 15.42304087 308.92437436 13 308 C12.66148822 305.31306278 12.329064 302.62559711 12 299.9375 C11.85691406 298.80924805 11.85691406 298.80924805 11.7109375 297.65820312 C11.15428098 293.06578683 10.90170972 288.6257865 11 284 C10.236875 283.71125 9.47375 283.4225 8.6875 283.125 C6 282 6 282 3 280 C1.34450469 279.61500109 -0.3222433 279.27206865 -2 279 C-1.278125 279.721875 -0.55625 280.44375 0.1875 281.1875 C1.115625 282.115625 2.04375 283.04375 3 284 C3.886875 284.804375 4.77375 285.60875 5.6875 286.4375 C9.87319528 291.07570288 10.24906562 295.7957845 10.125 301.875 C10.10695313 303.02742188 10.08890625 304.17984375 10.0703125 305.3671875 C10.03550781 306.67042969 10.03550781 306.67042969 10 308 C9.46375 308.20753906 8.9275 308.41507812 8.375 308.62890625 C4.18442395 310.27618861 0.03542987 311.96681406 -4.05078125 313.859375 C-4.75396484 314.18091553 -5.45714844 314.50245605 -6.18164062 314.83374023 C-7.58521309 315.47843799 -8.98386661 316.13397155 -10.37695312 316.80102539 C-14.37777131 318.62588236 -16.80751644 319.46091404 -21 318 C-22.49273437 317.49726562 -22.49273437 317.49726562 -24.015625 316.984375 C-29.9214797 314.73044978 -35.42716496 312.3332085 -40.87109375 309.125 C-43.8154926 307.56906079 -46.87163047 306.66285344 -50.046875 305.69140625 C-52.40279338 304.85741114 -54.15798338 303.68184126 -56 302 C-55.67 300.02 -55.34 298.04 -55 296 C-56.11375 295.6596875 -56.11375 295.6596875 -57.25 295.3125 C-60.53044691 293.74683216 -61.75254987 291.80931266 -64 289 C-65.20076172 288.56107422 -65.20076172 288.56107422 -66.42578125 288.11328125 C-69.51399524 286.77771071 -70.41835128 285.50960051 -72.1875 282.6875 C-72.67605469 281.92824219 -73.16460937 281.16898437 -73.66796875 280.38671875 C-75.01012152 277.98186437 -76.03739695 275.57758637 -77 273 C-77.53625 273.7425 -78.0725 274.485 -78.625 275.25 C-81.19871211 278.2300877 -83.68117328 279.8938215 -87 282 C-87.77537109 282.64388672 -87.77537109 282.64388672 -88.56640625 283.30078125 C-96.41038934 289.81111173 -106.3102902 293.71331283 -115.703125 297.48828125 C-119.01858659 299.00852252 -121.40764135 300.65543705 -124.1875 303 C-125.12464844 303.79019531 -126.06179687 304.58039063 -127.02734375 305.39453125 C-130.13807754 308.12102197 -133.20531154 310.88776448 -136.25 313.6875 C-136.7562793 314.1525293 -137.26255859 314.61755859 -137.78417969 315.09667969 C-139.92240361 317.06620744 -142.04696208 319.04541671 -144.13671875 321.06640625 C-145.9375 322.75 -145.9375 322.75 -149 325 C-151.9375 324.875 -151.9375 324.875 -154 324 C-154.125 317.25 -154.125 317.25 -153 315 C-153.72888428 314.93006836 -154.45776855 314.86013672 -155.20874023 314.78808594 C-186.49743971 311.72254745 -211.60919524 305.34313955 -236.375 285.25 C-237.2244519 284.57843872 -237.2244519 284.57843872 -238.09106445 283.89331055 C-240.67026826 281.71519942 -241.92654684 280.59088989 -242.3515625 277.171875 C-242.23554688 276.45515625 -242.11953125 275.7384375 -242 275 C-243.32 274.34 -244.64 273.68 -246 273 C-245.96519531 272.1646875 -245.96519531 272.1646875 -245.9296875 271.3125 C-245.83713117 267.39868937 -245.93256998 264.24021945 -247 260.4375 C-249.75829306 250.27643513 -249.16418496 239.9107978 -243.921875 230.76171875 C-240.68634475 226.11228809 -236.99212565 222.00733375 -233 218 C-232.47148437 217.40703125 -231.94296875 216.8140625 -231.3984375 216.203125 C-230.93695313 215.80609375 -230.47546875 215.4090625 -230 215 C-227.3125 215.3125 -227.3125 215.3125 -225 216 C-224.70703125 218.203125 -224.70703125 218.203125 -225 221 C-227.01171875 223.359375 -227.01171875 223.359375 -229.6875 225.75 C-236.36711678 232.14578038 -240.56100333 237.95821827 -241.07421875 247.38671875 C-240.90305571 253.4134596 -239.94930094 259.27041656 -237.375 264.75 C-236 268 -236 268 -236.4375 271.375 C-235.80729497 276.59669878 -233.18333 278.33416942 -229.2265625 281.60546875 C-207.65085248 297.96648522 -184.51920347 305.49265035 -157.5625 306.5625 C-156.54478516 306.60568359 -155.52707031 306.64886719 -154.47851562 306.69335938 C-151.98578972 306.79868582 -149.49297662 306.90081672 -147 307 C-146.34 305.02 -145.68 303.04 -145 301 C-143.02 301 -141.04 301 -139 301 C-138.67 302.32 -138.34 303.64 -138 305 C-137.28650391 304.32517578 -137.28650391 304.32517578 -136.55859375 303.63671875 C-128.63485537 296.35505125 -119.94970688 289.96647126 -111 284 C-109.824375 284.103125 -108.64875 284.20625 -107.4375 284.3125 C-101.40815809 284.44525615 -97.36796372 280.8003361 -93 277 C-90.79440643 274.74215887 -88.71750058 272.43509463 -86.69140625 270.015625 C-85 268 -85 268 -83.33984375 266.359375 C-81.60475652 264.59899495 -81.02361677 263.48272671 -80.90234375 261.00390625 C-80.91394531 260.19824219 -80.92554688 259.39257812 -80.9375 258.5625 C-80.94523438 257.66660156 -80.95296875 256.77070313 -80.9609375 255.84765625 C-80.98655058 253.98046282 -81.01257766 252.11327502 -81.0390625 250.24609375 C-81.14757392 237.53217239 -81.14757392 237.53217239 -80 232 C-79.34 231.34 -78.68 230.68 -78 230 C-80.31 229.34 -82.62 228.68 -85 228 C-85.26039063 228.57621094 -85.52078125 229.15242187 -85.7890625 229.74609375 C-87.08719808 232.16230095 -88.5619243 234.00794479 -90.375 236.0625 C-90.96023437 236.73410156 -91.54546875 237.40570313 -92.1484375 238.09765625 C-94 240 -94 240 -96.16796875 241.46484375 C-98.98396724 243.82451839 -98.80082298 246.34498293 -99.21484375 249.84375 C-100.35104353 252.96405986 -102.06891631 253.56767157 -105 255 C-106.70846287 255.73744711 -108.43938743 256.42471004 -110.1875 257.0625 C-111.47720703 257.54396484 -111.47720703 257.54396484 -112.79296875 258.03515625 C-121.8503181 260.76008352 -130.43562967 261.33790197 -139.875 261.3125 C-141.06480469 261.32861328 -142.25460938 261.34472656 -143.48046875 261.36132812 C-151.28012302 261.36559023 -158.61692746 260.67072061 -166 258 C-166.66 257.34 -167.32 256.68 -168 256 C-167.625 253.875 -167.625 253.875 -167 252 C-162.6165217 250.71074168 -160.23838576 251.50409914 -156 253 C-141.94576007 255.10739395 -128.79010247 254.11808508 -115 251 C-115.16822266 249.37384766 -115.16822266 249.37384766 -115.33984375 247.71484375 C-115 244 -115 244 -112.69140625 242.06640625 C-111.65886719 241.57011719 -110.62632812 241.07382812 -109.5625 240.5625 C-99.50076582 235.23569955 -93.04152357 228.59444028 -87 219 C-86.49339844 218.26136719 -85.98679688 217.52273438 -85.46484375 216.76171875 C-83.4647188 212.99081652 -82.4973438 209.1190144 -81.4375 205 C-78.57876775 194.09610484 -78.57876775 194.09610484 -77 191 C-75.33333333 190.66666667 -73.66666667 190.33333333 -72 190 C-70.97549761 187.81862203 -70.97549761 187.81862203 -70 185 C-59.0650993 167.63280477 -42.09357098 154.05683065 -22.2734375 148.4921875 C-19.47121693 147.88552119 -16.85529837 147.77458171 -14 148 C-13.71125 147.236875 -13.4225 146.47375 -13.125 145.6875 C-12 143 -12 143 -10 140 C-10.64066406 139.46632812 -11.28132812 138.93265625 -11.94140625 138.3828125 C-19.13641533 132.18502524 -27.18176723 124.77300113 -29 115 C-28.68989682 111.588865 -28.44323037 110.44323037 -26 108 C-27.11375 108.20625 -28.2275 108.4125 -29.375 108.625 C-30.57125 108.74875 -31.7675 108.8725 -33 109 C-33.66 108.34 -34.32 107.68 -35 107 C-34.65067002 102.80583624 -33.47822484 99.39618004 -31.71484375 95.6015625 C-31.26689453 94.62832031 -30.81894531 93.65507812 -30.35742188 92.65234375 C-29.65456055 91.15380859 -29.65456055 91.15380859 -28.9375 89.625 C-28.46505859 88.60277344 -27.99261719 87.58054687 -27.50585938 86.52734375 C-26.34367781 84.01515329 -25.17490756 81.50625747 -24 79 C-25.32 78.34 -26.64 77.68 -28 77 C-28.74189983 71.18845132 -27.36201198 68.14420527 -23.98632812 63.41845703 C-21.9488598 60.93773416 -19.76612856 59.12731735 -17.30078125 57.08203125 C-13.41851005 53.2413007 -12.37309776 50.80445998 -12.2265625 45.34765625 C-12.31350578 42.91719626 -12.44742853 40.4880233 -12.625 38.0625 C-13.5705576 20.64384576 -13.5705576 20.64384576 -10 14 C-9.01 13.67 -8.02 13.34 -7 13 C-6.9175 12.29875 -6.835 11.5975 -6.75 10.875 C-5.60263558 6.47676973 -3.19117306 3.19117306 0 0 Z " fill="#E3E3E3" transform="translate(266,113)"/>
<path d="M0 0 C2.625 0.375 2.625 0.375 5 1 C5 1.99 5 2.98 5 4 C3.68 4 2.36 4 1 4 C2.12951649 11.02810259 4.69977415 15.22650467 10 20 C13.21628365 21.98958527 13.21628365 21.98958527 16 23 C15.67 20.03 15.34 17.06 15 14 C19.37234456 15.09308614 20.61839545 16.21182811 23.8125 19.25 C27.70580901 22.86645148 31.59766358 26.03320806 36 29 C36.72445313 28.38511719 37.44890625 27.77023437 38.1953125 27.13671875 C39.64550781 25.92435547 39.64550781 25.92435547 41.125 24.6875 C42.07632812 23.88699219 43.02765625 23.08648437 44.0078125 22.26171875 C46.90403723 20.07253583 49.75785734 18.60310932 53 17 C53.46792969 16.48518066 53.93585938 15.97036133 54.41796875 15.43994141 C57.37149434 12.75168617 61.31695396 13.53037691 65.125 13.5625 C66.35089844 13.5325293 66.35089844 13.5325293 67.6015625 13.50195312 C73.94339511 13.5069704 78.4074322 15.14326561 84 18 C85.65266876 18.76794491 87.307678 19.53087051 88.96484375 20.2890625 C90.62292785 21.06657479 92.28047869 21.84522527 93.9375 22.625 C94.78634766 23.01945312 95.63519531 23.41390625 96.50976562 23.8203125 C97.31994141 24.201875 98.13011719 24.5834375 98.96484375 24.9765625 C99.6930835 25.31768066 100.42132324 25.65879883 101.17163086 26.01025391 C103 27 103 27 105 29 C104.625 31.625 104.625 31.625 104 34 C98.28473799 33.50334299 94.21131147 31.88373788 89.1875 29.1875 C87.77338185 28.45981228 86.35801814 27.73453983 84.94140625 27.01171875 C84.26352051 26.66415527 83.58563477 26.3165918 82.88720703 25.95849609 C75.89204539 22.40571413 68.97842329 19.15375329 61 21 C52.36345413 25.47697155 43.88708018 38.17588121 40 47 C40.556875 46.319375 41.11375 45.63875 41.6875 44.9375 C42.8321875 43.9784375 42.8321875 43.9784375 44 43 C46.75 43.25 46.75 43.25 49 44 C48.49325789 48.43399343 46.89488631 50.66649455 44 54 C41.77261893 56.68671748 41.77261893 56.68671748 42.125 59.0625 C42.98986535 61.5208389 42.98986535 61.5208389 47 63 C48.98 59.04 50.96 55.08 53 51 C54.65 51 56.3 51 58 51 C59 52 59 52 59.3125 54.1875 C58.89783919 57.91944733 57.10770268 59.93425065 55 63 C54.21784412 65.7282504 54.21784412 65.7282504 54 68 C64.14050793 65.80288995 69.89739979 59.10260021 77 52 C80.125 51.875 80.125 51.875 83 52 C83.33 53.32 83.66 54.64 84 56 C98.02786534 60.78275694 98.02786534 60.78275694 112.0546875 60.16015625 C113.74472095 59.17488778 115.37740278 58.09276955 117 57 C117.99 57 118.98 57 120 57 C122.95041657 44.58366358 123.36211623 32.73163508 123 20 C123.66 20 124.32 20 125 20 C125.33 19.01 125.66 18.02 126 17 C127.66611905 16.957279 129.33382885 16.95936168 131 17 C133.86877012 19.86877012 132.31102212 28.63119967 132.32128906 32.49584961 C132.22814219 40.98543198 131.24115676 48.08475401 128 56 C127.74605469 56.7321875 127.49210937 57.464375 127.23046875 58.21875 C124.98344569 63.44335535 120.59311649 65.00670168 115.65625 67.0546875 C111.97903979 68.36334172 108.84540767 69.139609 104.9375 69.125 C104.15375 69.12886719 103.37 69.13273437 102.5625 69.13671875 C100 69 100 69 97.25 68.45703125 C94.32066819 67.91591857 91.96006546 67.61948336 89 68 C86.60297202 69.88238561 85.04867919 71.9171822 83.25390625 74.37890625 C81.00935373 76.98912244 78.80076084 78.41385399 75.85766602 80.14624023 C71.85514649 82.60719369 68.73815408 84.80785197 67.19238281 89.3984375 C66.64306881 92.20085273 66.35532257 94.89970344 66.1875 97.75 C66.08997437 99.11753418 66.08997437 99.11753418 65.99047852 100.51269531 C65.97583015 104.40415819 66.00553903 106.96600054 68.78076172 109.8515625 C70.89798758 111.44162131 70.89798758 111.44162131 73.10766602 112.70605469 C76.12529876 114.76945987 76.80251698 117.64704753 78 121 C78.721875 121.886875 79.44375 122.77375 80.1875 123.6875 C82.84219472 128.53918345 83.02645256 133.58093427 82 139 C78.9588936 143.40570543 74.80129078 144.2736386 69.875 145.5625 C68.34366331 145.98536328 66.81241285 146.40853895 65.28125 146.83203125 C64.54390625 147.03135254 63.8065625 147.23067383 63.046875 147.43603516 C60.4696642 148.14612067 57.92355601 148.94374385 55.375 149.75 C47.75173573 152.029253 39.97356197 153.27962165 32.3125 150.8125 C28.21623144 148.5711455 25.56992079 145.76616089 22.5 142.3125 C20.53562047 140.59366791 18.42304087 139.92437436 16 139 C15.66148822 136.31306278 15.329064 133.62559711 15 130.9375 C14.85691406 129.80924805 14.85691406 129.80924805 14.7109375 128.65820312 C14.15428098 124.06578683 13.90170972 119.6257865 14 115 C13.236875 114.71125 12.47375 114.4225 11.6875 114.125 C9 113 9 113 6 111 C4.34450469 110.61500109 2.6777567 110.27206865 1 110 C1.721875 110.721875 2.44375 111.44375 3.1875 112.1875 C4.115625 113.115625 5.04375 114.04375 6 115 C6.886875 115.804375 7.77375 116.60875 8.6875 117.4375 C12.87319528 122.07570288 13.24906562 126.7957845 13.125 132.875 C13.10695313 134.02742187 13.08890625 135.17984375 13.0703125 136.3671875 C13.03550781 137.67042969 13.03550781 137.67042969 13 139 C12.46375 139.20753906 11.9275 139.41507813 11.375 139.62890625 C7.18442395 141.27618861 3.03542987 142.96681406 -1.05078125 144.859375 C-1.75396484 145.18091553 -2.45714844 145.50245605 -3.18164062 145.83374023 C-4.58521309 146.47843799 -5.98386661 147.13397155 -7.37695312 147.80102539 C-11.37777131 149.62588236 -13.80751644 150.46091404 -18 149 C-18.99515625 148.66484375 -19.9903125 148.3296875 -21.015625 147.984375 C-26.9214797 145.73044978 -32.42716496 143.3332085 -37.87109375 140.125 C-40.8154926 138.56906079 -43.87163047 137.66285344 -47.046875 136.69140625 C-49.40279338 135.85741114 -51.15798338 134.68184126 -53 133 C-52.67 131.02 -52.34 129.04 -52 127 C-52.7425 126.773125 -53.485 126.54625 -54.25 126.3125 C-57.53044691 124.74683216 -58.75254987 122.80931266 -61 120 C-61.80050781 119.70738281 -62.60101563 119.41476562 -63.42578125 119.11328125 C-66.51399524 117.77771071 -67.41835128 116.50960051 -69.1875 113.6875 C-69.67605469 112.92824219 -70.16460937 112.16898437 -70.66796875 111.38671875 C-72.01012152 108.98186437 -73.03739695 106.57758637 -74 104 C-74.53625 104.7425 -75.0725 105.485 -75.625 106.25 C-78.19871211 109.2300877 -80.68117328 110.8938215 -84 113 C-84.77537109 113.64388672 -84.77537109 113.64388672 -85.56640625 114.30078125 C-93.41038934 120.81111173 -103.3102902 124.71331283 -112.703125 128.48828125 C-116.01858659 130.00852252 -118.40764135 131.65543705 -121.1875 134 C-122.12464844 134.79019531 -123.06179687 135.58039063 -124.02734375 136.39453125 C-127.13807754 139.12102197 -130.20531154 141.88776448 -133.25 144.6875 C-133.7562793 145.1525293 -134.26255859 145.61755859 -134.78417969 146.09667969 C-136.92240361 148.06620744 -139.04696208 150.04541671 -141.13671875 152.06640625 C-142.9375 153.75 -142.9375 153.75 -146 156 C-148.9375 155.875 -148.9375 155.875 -151 155 C-151.125 148.25 -151.125 148.25 -150 146 C-150.72888428 145.93006836 -151.45776855 145.86013672 -152.20874023 145.78808594 C-183.49743971 142.72254745 -208.60919524 136.34313955 -233.375 116.25 C-233.94130127 115.80229248 -234.50760254 115.35458496 -235.09106445 114.89331055 C-237.67026826 112.71519942 -238.92654684 111.59088989 -239.3515625 108.171875 C-239.23554688 107.45515625 -239.11953125 106.7384375 -239 106 C-240.32 105.34 -241.64 104.68 -243 104 C-242.97679687 103.443125 -242.95359375 102.88625 -242.9296875 102.3125 C-242.83713117 98.39868937 -242.93256998 95.24021945 -244 91.4375 C-246.75829306 81.27643513 -246.16418496 70.9107978 -240.921875 61.76171875 C-237.68634475 57.11228809 -233.99212565 53.00733375 -230 49 C-229.47148437 48.40703125 -228.94296875 47.8140625 -228.3984375 47.203125 C-227.93695313 46.80609375 -227.47546875 46.4090625 -227 46 C-224.3125 46.3125 -224.3125 46.3125 -222 47 C-221.70703125 49.203125 -221.70703125 49.203125 -222 52 C-224.01171875 54.359375 -224.01171875 54.359375 -226.6875 56.75 C-233.36711678 63.14578038 -237.56100333 68.95821827 -238.07421875 78.38671875 C-237.90305571 84.4134596 -236.94930094 90.27041656 -234.375 95.75 C-233 99 -233 99 -233.4375 102.375 C-232.80729497 107.59669878 -230.18333 109.33416942 -226.2265625 112.60546875 C-204.65085248 128.96648522 -181.51920347 136.49265035 -154.5625 137.5625 C-153.54478516 137.60568359 -152.52707031 137.64886719 -151.47851562 137.69335938 C-148.98578972 137.79868582 -146.49297662 137.90081672 -144 138 C-143.01 135.03 -143.01 135.03 -142 132 C-140.02 132 -138.04 132 -136 132 C-135.67 133.32 -135.34 134.64 -135 136 C-134.28650391 135.32517578 -134.28650391 135.32517578 -133.55859375 134.63671875 C-125.63485537 127.35505125 -116.94970688 120.96647126 -108 115 C-106.824375 115.103125 -105.64875 115.20625 -104.4375 115.3125 C-98.40815809 115.44525615 -94.36796372 111.8003361 -90 108 C-87.79440643 105.74215887 -85.71750058 103.43509463 -83.69140625 101.015625 C-82 99 -82 99 -80.33984375 97.359375 C-78.60475652 95.59899495 -78.02361677 94.48272671 -77.90234375 92.00390625 C-77.91394531 91.19824219 -77.92554688 90.39257812 -77.9375 89.5625 C-77.94523438 88.66660156 -77.95296875 87.77070313 -77.9609375 86.84765625 C-77.98655058 84.98046282 -78.01257766 83.11327502 -78.0390625 81.24609375 C-78.14757392 68.53217239 -78.14757392 68.53217239 -77 63 C-75 61 -75 61 -72.375 60.875 C-71.59125 60.91625 -70.8075 60.9575 -70 61 C-69.20046862 64.28696233 -68.90341064 65.71023192 -70 69 C-71.22517647 83.16304005 -70.87348992 99.16868011 -62 111 C-60.34561387 111.69658363 -58.67745682 112.36096883 -57 113 C-55.31833253 114.73149466 -53.8254377 116.54608038 -52.33203125 118.44140625 C-51.06350705 120.13049223 -51.06350705 120.13049223 -49 121 C-48.67 119.68 -48.34 118.36 -48 117 C-46.35 117.33 -44.7 117.66 -43 118 C-42.67 121.96 -42.34 125.92 -42 130 C-40.783125 130.45375 -39.56625 130.9075 -38.3125 131.375 C-36.01837268 132.23077779 -33.75393966 133.10457564 -31.5 134.0625 C-29.2734064 134.8974726 -27.18924603 135.42415815 -24.875 135.9375 C-21.59896383 136.70150097 -20.36596555 137.63403445 -18 140 C-14.87450983 140.25048636 -14.87450983 140.25048636 -12 140 C-12.309375 138.783125 -12.61875 137.56625 -12.9375 136.3125 C-13.71157177 133.2217028 -14.41262688 130.13265666 -15 127 C-13.91481889 127.91447846 -12.83195262 128.83170407 -11.75 129.75 C-10.78513672 130.56404297 -10.78513672 130.56404297 -9.80078125 131.39453125 C-8 133 -8 133 -5.9375 135.4375 C-3.99073182 137.37285386 -3.99073182 137.37285386 -0.75 136.75 C0.1575 136.5025 1.065 136.255 2 136 C0.45647885 131.077103 -0.54533461 127.91857388 -5 125 C-5 124.01 -5 123.02 -5 122 C-1.51829452 122.29014212 -0.25771045 122.72756324 2.1875 125.3125 C3.66745177 127.50691124 4.92754832 129.58698372 6 132 C6.31817283 128.02283961 6.24164038 125.50341745 4.5 121.875 C1.40286505 118.31329481 -1.93495167 116.30380563 -6 114 C-6.99 113.34 -7.98 112.68 -9 112 C-8.67 111.484375 -8.34 110.96875 -8 110.4375 C-6.77859213 107.89942745 -6.77859213 107.89942745 -7 104.5 C-7 101 -7 101 -6.015625 99.1875 C-2.49862778 91.61242907 -4.65250704 78.81737948 -7 71 C-11.67425104 61.61881085 -21.81602389 54.57366648 -31.3515625 50.83203125 C-39.09382898 49.0663966 -47.11348755 49.64931516 -55 50 C-50.68288443 45.56587707 -46.14756061 43.17289971 -39.87109375 42.828125 C-28.72993378 43.40688656 -20.47981753 46.90566447 -12 54 C-11.04480469 54.7321875 -10.08960938 55.464375 -9.10546875 56.21875 C-5.54610347 59.19418305 -3.09769426 62.70854998 -0.5625 66.5625 C-0.10423828 67.22185547 0.35402344 67.88121094 0.82617188 68.56054688 C4.10243245 73.47740852 4.10243245 73.47740852 3.62353516 75.9206543 C3.41776855 76.60683838 3.21200195 77.29302246 3 78 C2.92133041 79.58692639 2.89215886 81.17678249 2.90234375 82.765625 C2.90556641 83.65507812 2.90878906 84.54453125 2.91210938 85.4609375 C2.92048828 86.38132812 2.92886719 87.30171875 2.9375 88.25 C2.94426758 89.65378906 2.94426758 89.65378906 2.95117188 91.0859375 C2.96293082 93.39069041 2.97936574 95.69531227 3 98 C6.465 97.01 6.465 97.01 10 96 C9.76796875 94.31233521 9.76796875 94.31233521 9.53125 92.59057617 C8.94877016 87.91606008 8.70009916 83.25507264 8.5 78.55078125 C8.45939453 77.65747604 8.41878906 76.76417084 8.37695312 75.84379578 C8.24832845 73.00015469 8.12403513 70.15634459 8 67.3125 C7.91696439 65.45506479 7.8336332 63.59764277 7.75 61.74023438 C7.70883057 60.82176727 7.66766113 59.90330017 7.62524414 58.95700073 C7.54184547 57.10501782 7.45770007 55.25306838 7.37280273 53.40115356 C7.15512335 48.6226402 6.95549767 43.84441614 6.78515625 39.06396484 C6.72908203 37.6269648 6.72908203 37.6269648 6.671875 36.16093445 C6.60070285 34.3353707 6.5365294 32.50951617 6.48046875 30.6834259 C6.44695312 29.86387924 6.4134375 29.04433258 6.37890625 28.19995117 C6.3538501 27.48312668 6.32879395 26.76630219 6.30297852 26.02775574 C5.72402588 22.15297757 3.93644874 19.92404849 1.4375 16.9375 C-1.54906207 13.33830981 -2.15012314 10.97505053 -2.1875 6.4375 C-2.20167969 5.65246094 -2.21585938 4.86742187 -2.23046875 4.05859375 C-2 2 -2 2 0 0 Z " fill="#080808" transform="translate(263,282)"/>
<path d="M0 0 C0.74443359 0.56267578 0.74443359 0.56267578 1.50390625 1.13671875 C5.95741524 4.49163919 10.45004098 7.77711236 15 11 C13 16 13 16 11.9375 18.1875 C9.36726403 25.8982079 9.48977593 32.65301939 13 40 C15.17485591 44.15921349 16.74909836 46.54293979 21.25 48.1875 C22.4875 48.455625 23.725 48.72375 25 49 C26.44761891 49.6874168 27.88472513 50.3972629 29.3125 51.125 C34.0704264 53.30401604 38.82605657 54.03665654 44 53 C45.60545076 51.61851229 45.60545076 51.61851229 47 50 C48.76091418 49.00748474 50.52282863 48.01634741 52.30078125 47.0546875 C54.21919443 45.96939553 54.21919443 45.96939553 56.125 43.6875 C56.74375 43.130625 57.3625 42.57375 58 42 C60.75 42.25 60.75 42.25 63 43 C60.93020062 47.64940157 57.65638699 50.55916421 54 54 C53.195625 54.804375 52.39125 55.60875 51.5625 56.4375 C47.88564484 58.67948486 45.25723637 58.28862619 41 58 C39.81922507 60.36154987 39.94503647 61.56578625 40.0859375 64.18359375 C40.14998779 65.44417603 40.14998779 65.44417603 40.21533203 66.73022461 C40.42845672 70.3438939 40.64399395 73.95737057 40.86914062 77.5703125 C40.97716893 79.57609187 41.02067697 81.58523447 41.046875 83.59375 C41.11924955 86.22818373 41.22495391 88.48110021 42 91 C44.83553832 93.33392879 44.83553832 93.33392879 47.01171875 94.5078125 C51.7918037 98.095224 55.43561062 104.69932994 56.4375 110.55859375 C56.4375 112.75 56.4375 112.75 56 116 C55.01 116 54.02 116 53 116 C52.01 112.37 51.02 108.74 50 105 C48.68 105 47.36 105 46 105 C46 109.29 46 113.58 46 118 C41 120 41 120 38 120 C37.3490741 118.75264433 36.70448331 117.50198168 36.0625 116.25 C35.52302734 115.20585937 35.52302734 115.20585937 34.97265625 114.140625 C34.04441818 112.09775567 33.46833422 110.18884624 33 108 C30.03 108.495 30.03 108.495 27 109 C27.39578955 111.84968477 27.75538985 113.67385313 29.5 116 C31.24461015 118.32614687 31.60421045 120.15031523 32 123 C26.08036815 124.67768368 20.20555056 125.16519652 14.6875 122.25 C13.800625 121.5075 12.91375 120.765 12 120 C8.91906544 117.43255454 6.91289248 115.8172497 3 115 C1.63075369 99.69378229 1.90255846 84.35079067 2 69 C1.01 69 0.02 69 -1 69 C-1.43335018 62.13595145 -1.8598067 55.2714981 -2.28173828 48.40673828 C-2.42570299 46.07721532 -2.57117743 43.7477851 -2.71826172 41.41845703 C-4.28393445 16.59136091 -4.28393445 16.59136091 -4 5 C-3.01 4.67 -2.02 4.34 -1 4 C-0.26676204 1.98491642 -0.26676204 1.98491642 0 0 Z " fill="#E3E3E3" transform="translate(282,303)"/>
<path d="M0 0 C7.09493944 0.24177819 9.72209138 2.96027621 14.37890625 7.921875 C33.73567765 30.13907465 33.73567765 30.13907465 33 41 C30.525 41.495 30.525 41.495 28 42 C23.32669323 34.57768924 23.32669323 34.57768924 21.71875 31.734375 C18.65365883 26.35264516 15.17798891 21.43802998 11.375 16.5625 C10.90755371 15.95905762 10.44010742 15.35561523 9.95849609 14.73388672 C7.55374732 11.70292802 5.24749579 9.12688105 2 7 C-0.60595584 13.94921558 -2.02249987 20.93685064 -3.30859375 28.21875 C-3.82234143 31.02839832 -4.40866722 33.74079225 -5.125 36.5 C-5.9896243 40.01976979 -6.07096972 43.40230169 -6.13598633 47.01879883 C-6.35055585 56.05207394 -6.35055585 56.05207394 -8.546875 59.2578125 C-10.4375 60.8125 -10.4375 60.8125 -12.30859375 61.95703125 C-14.32778969 63.03984087 -14.32778969 63.03984087 -16 66 C-15.01 66.66 -14.02 67.32 -13 68 C-13.41204065 75.27938475 -16.5757474 81.37857638 -19.5625 87.9375 C-20.08263672 89.09830078 -20.60277344 90.25910156 -21.13867188 91.45507812 C-22.4179416 94.30702806 -23.7052277 97.15506307 -25 100 C-24.06800781 99.67386719 -23.13601562 99.34773438 -22.17578125 99.01171875 C-19.19195622 98.0611521 -17.09476182 97.7347347 -14 98 C-13 99 -13 99 -12.7265625 101.2734375 C-13.06915227 104.68954689 -14.18155208 106.01972104 -16.375 108.625 C-18.38745556 111.05154106 -20.24777144 113.37165717 -22 116 C-21.34 116 -20.68 116 -20 116 C-19.505 117.155 -19.01 118.31 -18.5 119.5 C-12.40148568 131.40362933 -0.05561696 137.65415174 12.125 142 C16.22641616 143.19816652 19.46137285 143.40297378 23.625 142.3125 C26 142 26 142 27.8125 143.125 C29.37509409 145.59225382 29.36796448 147.12987704 29 150 C27 152 27 152 25.14453125 152.15234375 C16.99435494 151.40148999 9.66095613 148.73240769 2 146 C0.00158809 145.32858785 -1.99786086 144.66021459 -4 144 C-4.185625 145.051875 -4.37125 146.10375 -4.5625 147.1875 C-5.70487075 151.17364473 -7.69220485 152.93791478 -11.125 155.140625 C-13.7913819 156.3627167 -16.11264743 156.19686495 -19 156 C-19.99 156.66 -20.98 157.32 -22 158 C-23.49216591 158.27560527 -24.99431278 158.4992891 -26.5 158.6875 C-40.97528982 161.42265651 -53.10979144 175.0190471 -62 186 C-63.68039392 188.60190026 -64.93783739 190.81765635 -65.9375 193.75 C-66.288125 194.4925 -66.63875 195.235 -67 196 C-67.62777344 196.061875 -68.25554687 196.12375 -68.90234375 196.1875 C-71.38137075 196.86547458 -71.38137075 196.86547458 -72.4140625 200.140625 C-72.83757192 201.50440612 -73.2400198 202.87484568 -73.625 204.25 C-73.83737305 204.96494629 -74.04974609 205.67989258 -74.26855469 206.41650391 C-75.88240264 212.05496336 -76.91821822 217.70083889 -77.640625 223.5234375 C-78 226 -78 226 -79 228 C-80.98 228 -82.96 228 -85 228 C-85.26039063 228.57621094 -85.52078125 229.15242187 -85.7890625 229.74609375 C-87.08719808 232.16230095 -88.5619243 234.00794479 -90.375 236.0625 C-90.96023437 236.73410156 -91.54546875 237.40570313 -92.1484375 238.09765625 C-94 240 -94 240 -96.16796875 241.46484375 C-98.98396724 243.82451839 -98.80082298 246.34498293 -99.21484375 249.84375 C-100.35104353 252.96405986 -102.06891631 253.56767157 -105 255 C-106.70846287 255.73744711 -108.43938743 256.42471004 -110.1875 257.0625 C-111.04730469 257.38347656 -111.90710938 257.70445312 -112.79296875 258.03515625 C-121.8503181 260.76008352 -130.43562967 261.33790197 -139.875 261.3125 C-141.06480469 261.32861328 -142.25460938 261.34472656 -143.48046875 261.36132812 C-151.28012302 261.36559023 -158.61692746 260.67072061 -166 258 C-166.66 257.34 -167.32 256.68 -168 256 C-167.625 253.875 -167.625 253.875 -167 252 C-162.6165217 250.71074168 -160.23838576 251.50409914 -156 253 C-141.94576007 255.10739395 -128.79010247 254.11808508 -115 251 C-115.11214844 249.91589844 -115.22429687 248.83179688 -115.33984375 247.71484375 C-115 244 -115 244 -112.69140625 242.06640625 C-111.65886719 241.57011719 -110.62632812 241.07382812 -109.5625 240.5625 C-99.50076582 235.23569955 -93.04152357 228.59444028 -87 219 C-86.49339844 218.26136719 -85.98679687 217.52273438 -85.46484375 216.76171875 C-83.4647188 212.99081652 -82.4973438 209.1190144 -81.4375 205 C-78.57876775 194.09610484 -78.57876775 194.09610484 -77 191 C-75.33333333 190.66666667 -73.66666667 190.33333333 -72 190 C-70.97549761 187.81862203 -70.97549761 187.81862203 -70 185 C-59.0650993 167.63280477 -42.09357098 154.05683065 -22.2734375 148.4921875 C-19.47121693 147.88552119 -16.85529837 147.77458171 -14 148 C-13.71125 147.236875 -13.4225 146.47375 -13.125 145.6875 C-12 143 -12 143 -10 140 C-10.64066406 139.46632812 -11.28132812 138.93265625 -11.94140625 138.3828125 C-19.13641533 132.18502524 -27.18176723 124.77300113 -29 115 C-28.68989682 111.588865 -28.44323037 110.44323037 -26 108 C-27.11375 108.20625 -28.2275 108.4125 -29.375 108.625 C-30.57125 108.74875 -31.7675 108.8725 -33 109 C-33.66 108.34 -34.32 107.68 -35 107 C-34.65067002 102.80583624 -33.47822484 99.39618004 -31.71484375 95.6015625 C-31.26689453 94.62832031 -30.81894531 93.65507812 -30.35742188 92.65234375 C-29.65456055 91.15380859 -29.65456055 91.15380859 -28.9375 89.625 C-28.46505859 88.60277344 -27.99261719 87.58054687 -27.50585938 86.52734375 C-26.34367781 84.01515329 -25.17490756 81.50625747 -24 79 C-25.32 78.34 -26.64 77.68 -28 77 C-28.74189983 71.18845132 -27.36201198 68.14420527 -23.98632812 63.41845703 C-21.9488598 60.93773416 -19.76612856 59.12731735 -17.30078125 57.08203125 C-13.41851005 53.2413007 -12.37309776 50.80445998 -12.2265625 45.34765625 C-12.31350578 42.91719626 -12.44742853 40.4880233 -12.625 38.0625 C-13.5705576 20.64384576 -13.5705576 20.64384576 -10 14 C-9.01 13.67 -8.02 13.34 -7 13 C-6.9175 12.29875 -6.835 11.5975 -6.75 10.875 C-5.60263558 6.47676973 -3.19117306 3.19117306 0 0 Z " fill="#080808" transform="translate(266,113)"/>
<path d="M0 0 C1.65 0 3.3 0 5 0 C5.98669759 1.89192475 6.9640602 3.78871978 7.9375 5.6875 C8.48277344 6.74324219 9.02804687 7.79898438 9.58984375 8.88671875 C11.51680941 13.1409892 12.14714426 16.92158944 12.1875 21.5625 C12.20167969 22.30628906 12.21585937 23.05007812 12.23046875 23.81640625 C12 26 12 26 10.93359375 28.1171875 C10.62550781 28.73851562 10.31742187 29.35984375 10 30 C10.28875 30.845625 10.5775 31.69125 10.875 32.5625 C12.84623643 38.58572243 13.03528549 44.6809605 10.4375 50.5 C9.963125 51.325 9.48875 52.15 9 53 C9.75150023 56.27773504 9.75150023 56.27773504 13 58 C12.42925015 65.60999801 7.85317287 71.37869905 3 77 C1.23717934 78.45807074 -0.57837567 79.85439698 -2.4375 81.1875 C-3.82775391 82.19876953 -3.82775391 82.19876953 -5.24609375 83.23046875 C-7.78883409 84.86431467 -10.15949655 85.99474016 -13 87 C-12.57589844 87.46148437 -12.15179688 87.92296875 -11.71484375 88.3984375 C-2.48540317 98.66238681 5.85085599 109.09336113 5.33984375 123.50390625 C4.89560211 126.7667845 3.78461775 129.24871431 2 132 C-3.41538462 132.36923077 -3.41538462 132.36923077 -6.375 130.5 C-6.91125 130.005 -7.4475 129.51 -8 129 C-8.37318359 129.85851562 -8.37318359 129.85851562 -8.75390625 130.734375 C-10.18425373 133.33500678 -11.84664674 135.14746599 -13.9375 137.25 C-14.62714844 137.95640625 -15.31679688 138.6628125 -16.02734375 139.390625 C-18 141 -18 141 -21 141 C-20.44759456 137.2168597 -18.93966167 135.74504808 -16.125 133.25 C-12.10158109 129.41405222 -10.51700075 126.30950263 -9 121 C-7.33388095 120.957279 -5.66617115 120.95936168 -4 121 C-3.67 121.33 -3.34 121.66 -3 122 C-2.13146044 114.32790058 -4.59453323 109.23820977 -9 103 C-12.16541249 99.47188399 -15.49713673 96.19134381 -19 93 C-19.81791016 93.58007812 -19.81791016 93.58007812 -20.65234375 94.171875 C-25.89494026 97.79240319 -31.01034335 100.80509325 -37 103 C-38.21816406 103.45052734 -38.21816406 103.45052734 -39.4609375 103.91015625 C-54.45732245 108.52938657 -72.34745114 107.36737753 -87 102 C-87.66 101.34 -88.32 100.68 -89 100 C-88.625 97.375 -88.625 97.375 -88 95 C-83.84291336 95.4860158 -79.71904077 96.02294371 -75.59765625 96.75390625 C-74.47907227 96.95209961 -74.47907227 96.95209961 -73.33789062 97.15429688 C-71.82406249 97.42587634 -70.31102511 97.70190216 -68.79882812 97.98242188 C-59.28885799 99.64810258 -51.87557708 99.07013272 -42.6875 96.0625 C-40.94156394 95.51121909 -39.19547582 94.96041949 -37.44921875 94.41015625 C-36.68955811 94.16402588 -35.92989746 93.91789551 -35.1472168 93.66430664 C-33.11112088 93.03437862 -31.07240641 92.49569681 -29 92 C-28.8596936 91.08105957 -28.8596936 91.08105957 -28.71655273 90.14355469 C-27.81846281 87.45693474 -26.99280417 87.02905452 -24.53515625 85.703125 C-23.82190186 85.30569092 -23.10864746 84.90825684 -22.3737793 84.4987793 C-21.61105713 84.08668213 -20.84833496 83.67458496 -20.0625 83.25 C-5.500489 75.39375316 -5.500489 75.39375316 3.9375 62.4375 C4.01828555 59.2868637 2.86610614 58.46326011 1 56 C0.625 52.9375 0.625 52.9375 1 50 C1.474375 49.54625 1.94875 49.0925 2.4375 48.625 C4.49618144 46.4839713 4.91630558 44.43055875 5.21875 41.51953125 C4.8300008 37.04197353 2.86090859 33.11398582 1.03125 29.05078125 C-0.0695853 25.79414349 -0.00806436 24.23420647 1 21 C2.32 21 3.64 21 5 21 C3.82162248 15.59910304 2.21637022 11.00813371 -0.29296875 6.078125 C-1.12609248 3.62938565 -0.8498379 2.40336322 0 0 Z " fill="#080808" transform="translate(388,166)"/>
<path d="M0 0 C1.75 2.125 1.75 2.125 2.125 4.8125 C1.75 7.125 1.75 7.125 0.75 8.125 C-1.92058851 8.26615161 -4.57432238 8.16747107 -7.25 8.125 C-5.27 10.435 -3.29 12.745 -1.25 15.125 C1.73495805 12.93017791 4.18592007 10.68247622 6.5 7.8125 C10.65561812 2.86431554 15.47201339 -2.16798328 21.9375 -3.5625 C26.79657662 -2.37472571 29.77531839 -0.15345427 32.79296875 3.8046875 C34.91356089 7.40249852 35.93036553 10.5800191 36.9375 14.625 C37.26105469 15.8934375 37.58460938 17.161875 37.91796875 18.46875 C39.29492041 24.51957985 39.85648471 29.94888679 39.75 36.125 C37.375 36.75 37.375 36.75 34.75 37.125 C32.46814362 34.84314362 32.4199182 34.18010829 32.0390625 31.08984375 C31.93070068 30.28409912 31.82233887 29.47835449 31.71069336 28.64819336 C31.59991455 27.79491455 31.48913574 26.94163574 31.375 26.0625 C29.85962136 14.64057031 29.85962136 14.64057031 23.75 5.125 C19.22908766 5.56250765 17.39119295 8.36416417 14.59375 11.68359375 C13.43359375 13.10865234 13.43359375 13.10865234 12.25 14.5625 C11.4765625 15.50996094 10.703125 16.45742187 9.90625 17.43359375 C9.1946875 18.32175781 8.483125 19.20992187 7.75 20.125 C7.1415625 20.79660156 6.533125 21.46820313 5.90625 22.16015625 C4.50255602 24.08739261 4.50255602 24.08739261 5.046875 26.46875 C5.39492188 27.78359375 5.39492188 27.78359375 5.75 29.125 C5.88925396 31.28879232 5.9696067 33.45694439 6 35.625 C6.02578125 36.7284375 6.0515625 37.831875 6.078125 38.96875 C5.71697452 42.4426737 4.75070316 44.30295554 2.75 47.125 C0.375 46.9375 0.375 46.9375 -2.25 46.125 C-3.3125 43.75 -3.3125 43.75 -4.25 41.125 C-8.30772145 37.06727855 -13.42228239 36.15546196 -19 36.0625 C-20.0725 36.413125 -21.145 36.76375 -22.25 37.125 C-23.98068271 40.579817 -23.98068271 40.579817 -25.25 44.125 C-27.3125 45.1875 -27.3125 45.1875 -29.25 45.125 C-29.91 44.465 -30.57 43.805 -31.25 43.125 C-31.13266675 37.02367105 -29.34630778 34.32121773 -25.25 30.125 C-20.32021545 27.66010773 -13.3601882 28.49905039 -8.234375 30.01953125 C-5.85990285 30.97949642 -3.54440146 31.98795149 -1.25 33.125 C-4.28480172 22.15302454 -10.19073106 14.0113226 -19.25 7.125 C-18.92 5.145 -18.59 3.165 -18.25 1.125 C-29.27565596 2.78102738 -35.55235739 7.17972507 -42.25 16.125 C-44.0224366 20.00294854 -45.12229984 24.01694943 -46.25 28.125 C-51.125 27.25 -51.125 27.25 -52.25 26.125 C-52.25 16.86224374 -48.28306573 10.43498397 -42.03125 3.75390625 C-30.32027244 -7.1750026 -13.96344951 -8.05583626 0 0 Z " fill="#080808" transform="translate(353.25,122.875)"/>
<path d="M0 0 C0.66 0.66 1.32 1.32 2 2 C1.9765625 4.1640625 1.9765625 4.1640625 1.625 6.625 C1.51414062 7.44226563 1.40328125 8.25953125 1.2890625 9.1015625 C1.14597656 10.04128906 1.14597656 10.04128906 1 11 C2.26831693 11.81642254 3.53975931 12.62799105 4.8125 13.4375 C5.52019531 13.88996094 6.22789062 14.34242188 6.95703125 14.80859375 C11.07265219 17.20871686 14.51191903 17.10539524 19.1875 17.0625 C20.45980469 17.05347656 21.73210937 17.04445312 23.04296875 17.03515625 C24.01878906 17.02355469 24.99460937 17.01195312 26 17 C26.6875 19.3125 26.6875 19.3125 27 22 C25.91015625 23.78515625 25.91015625 23.78515625 24 25 C15.0629176 26.50991803 7.03996092 24.36544622 -0.3984375 19.3984375 C-2.31330825 17.98076126 -4.17421671 16.529986 -6 15 C-6.79664063 15.69867188 -7.59328125 16.39734375 -8.4140625 17.1171875 C-9.48396858 18.03693132 -10.55430405 18.95617581 -11.625 19.875 C-12.14707031 20.33519531 -12.66914063 20.79539063 -13.20703125 21.26953125 C-16.64157756 24.19525588 -19.63809482 25.86040315 -24 27 C-19.36120386 34.0811926 -14.71451752 38.67662666 -6.4375 41 C-2.17929305 41 0.30104152 40.09375008 4 38 C6.41144481 35.46900795 6.41144481 35.46900795 8 33 C9.32 33.33 10.64 33.66 12 34 C12.65625 35.77734375 12.65625 35.77734375 13 38 C10.8627413 42.00736006 7.59608573 44.6446412 3.75 46.9375 C-5.05115184 49.43115969 -11.18361594 48.2112422 -19.22265625 43.85546875 C-24.3387545 40.43754094 -27.62667361 36.05998959 -31 31 C-33.42521494 30.41810734 -33.42521494 30.41810734 -36.125 30.3125 C-37.03507812 30.24675781 -37.94515625 30.18101562 -38.8828125 30.11328125 C-39.58148438 30.07589844 -40.28015625 30.03851563 -41 30 C-41.38218767 28.34385343 -41.71395102 26.67542976 -42 25 C-40.3014742 23.3014742 -37.88711492 23.58790024 -35.5625 23.3125 C-26.71537688 21.90117322 -19.88977154 17.67507441 -14 11 C-14.33 10.443125 -14.66 9.88625 -15 9.3125 C-16.1309601 6.69715478 -16.15662974 4.8193354 -16 2 C-10.34125577 -0.27119666 -6.11019598 -1.6210724 0 0 Z " fill="#090909" transform="translate(335,208)"/>
<path d="M0 0 C2.1875 -0.3125 2.1875 -0.3125 5 0 C5.78375 0.825 6.5675 1.65 7.375 2.5 C8.24125 3.325 9.1075 4.15 10 5 C11.093125 4.938125 12.18625 4.87625 13.3125 4.8125 C18.37720729 5.07002749 20.10268328 7.30321795 23.59375 10.76171875 C25 13 25 13 24.78125 15.70703125 C24 18 24 18 23 19 C13.07776117 18.79328669 5.94503068 11.39624079 -1 5 C-0.67 3.35 -0.34 1.7 0 0 Z " fill="#0A0A0A" transform="translate(58,325)"/>
<path d="M0 0 C1 1 1 1 1.25 3.4375 C1.1675 4.283125 1.085 5.12875 1 6 C-3.65641785 9.10427857 -8.57529408 8.55254976 -14.0625 8.75 C-15.7340918 8.83314453 -15.7340918 8.83314453 -17.43945312 8.91796875 C-18.50228516 8.96050781 -19.56511719 9.00304687 -20.66015625 9.046875 C-22.12400757 9.10633301 -22.12400757 9.10633301 -23.61743164 9.16699219 C-26 9 -26 9 -28 7 C-27.44444444 2.44444444 -27.44444444 2.44444444 -26 1 C-17.50823838 -0.35935314 -8.57746521 -0.380723 0 0 Z " fill="#090909" transform="translate(304,196)"/>
<path d="M0 0 C2.62969362 1.01176348 5.1400609 2.16443857 7.6796875 3.38671875 C8.31841797 3.68707031 8.95714844 3.98742187 9.61523438 4.296875 C11.76873088 5.31286317 13.91301549 6.34605054 16.0546875 7.38671875 C16.7451416 7.71865234 17.4355957 8.05058594 18.14697266 8.39257812 C21.95050082 10.28921867 24.84286608 12.12801107 27.6796875 15.38671875 C24.07737617 16.68410291 22.78306227 16.43292237 19.21875 14.83984375 C17.90979086 14.1131099 16.60530439 13.37827914 15.3046875 12.63671875 C7.53486193 8.47032964 0.45619667 6.58869639 -8.3203125 5.38671875 C-9.66416016 5.19335938 -9.66416016 5.19335938 -11.03515625 4.99609375 C-12.79293607 4.76131121 -14.5560834 4.56674213 -16.3203125 4.38671875 C-13.2702069 -2.3670865 -6.61105712 -1.74736695 0 0 Z " fill="#EBEBEB" transform="translate(336.3203125,302.61328125)"/>
<path d="M0 0 C0.81855469 0.00386719 1.63710938 0.00773438 2.48046875 0.01171875 C3.67349609 0.00591797 3.67349609 0.00591797 4.890625 0 C9.6501131 0.00781525 14.16199499 0.34398726 18.85546875 1.13671875 C19.98046875 4.88671875 19.98046875 4.88671875 18.85546875 7.13671875 C13.60168184 8.5276735 8.40615226 8.08651412 3.04296875 7.76171875 C2.17220703 7.71789062 1.30144531 7.6740625 0.40429688 7.62890625 C-6.01244129 7.26880871 -6.01244129 7.26880871 -7.14453125 6.13671875 C-7.26953125 3.63671875 -7.26953125 3.63671875 -7.14453125 1.13671875 C-5.25045709 -0.75735541 -2.51679033 0.00417378 0 0 Z " fill="#0A0A0A" transform="translate(357.14453125,191.86328125)"/>
<path d="M0 0 C2.6875 0.3125 2.6875 0.3125 5 1 C2.93015608 5.64950161 -0.34386794 8.55893454 -4 12 C-4.825 12.825 -5.65 13.65 -6.5 14.5 C-9.95887281 16.57532369 -12.17473486 15.90006239 -16 15 C-16.33 14.01 -16.66 13.02 -17 12 C-16.0409375 11.443125 -16.0409375 11.443125 -15.0625 10.875 C-12.47039826 9.28799893 -9.91622557 7.66651334 -7.375 6 C-6.24191406 5.2575 -6.24191406 5.2575 -5.0859375 4.5 C-2.97627726 3.08390678 -2.97627726 3.08390678 -1.39453125 1.29296875 C-0.93433594 0.86628906 -0.47414063 0.43960937 0 0 Z " fill="#CDCDCD" transform="translate(340,345)"/>
<path d="M0 0 C2.3125 -0.3125 2.3125 -0.3125 5 0 C6.5625 2.1875 6.5625 2.1875 8 5 C8.721875 5.825 9.44375 6.65 10.1875 7.5 C12.22929837 10.31627361 12.3877533 11.60715864 12 15 C10.35 15.33 8.7 15.66 7 16 C6.01886757 14.70982586 5.04015801 13.41780894 4.0625 12.125 C3.51722656 11.40570313 2.97195312 10.68640625 2.41015625 9.9453125 C-0.09973245 6.48291757 -0.09225098 4.24354529 0 0 Z " fill="#090909" transform="translate(88,345)"/>
<path d="M0 0 C4.43536862 -0.69302635 7.54716825 0.74131245 11.1953125 3.09448242 C14.94059698 7.04902049 14.65656939 12.61738439 15 17.8125 C15.10699219 18.98232422 15.21398437 20.15214844 15.32421875 21.35742188 C15.58280529 24.2371356 15.80673229 27.11528872 16 30 C14.68 29.67 13.36 29.34 12 29 C11.96261719 28.154375 11.92523438 27.30875 11.88671875 26.4375 C11.58528805 16.76942373 11.58528805 16.76942373 8 8 C5.97178842 6.2082795 3.91798914 4.69304525 1.64453125 3.2265625 C1.10183594 2.82179688 0.55914062 2.41703125 0 2 C0 1.34 0 0.68 0 0 Z " fill="#D1D1D1" transform="translate(264,392)"/>
<path d="M0 0 C3.42778386 0.28564865 4.72242347 0.70609544 7.125 3.25 C12 10.4 12 10.4 12 13 C10.35 13.33 8.7 13.66 7 14 C6.82984375 13.45730469 6.6596875 12.91460937 6.484375 12.35546875 C4.99424867 7.9564256 3.98815608 5.61292985 0 3 C0 2.01 0 1.02 0 0 Z " fill="#1A1A1A" transform="translate(258,404)"/>
<path d="M0 0 C2.21368294 2.21368294 3.86552921 3.93016625 4.265625 7.11328125 C4.25166986 9.07746787 4.13286356 11.0402625 4 13 C3.01 13 2.02 13 1 13 C0.63779734 11.20994059 0.28547531 9.41787943 -0.0625 7.625 C-0.25972656 6.62726563 -0.45695312 5.62953125 -0.66015625 4.6015625 C-1 2 -1 2 0 0 Z " fill="#D1D1D1" transform="translate(334,406)"/>
<path d="M0 0 C0.66 0.33 1.32 0.66 2 1 C1.50628906 1.33128906 1.01257813 1.66257812 0.50390625 2.00390625 C-3.22864071 5.00045804 -4.81739855 6.98946696 -5.6875 11.8046875 C-5.98273994 15.5371419 -6.03371862 19.2572332 -6 23 C-6.33 23 -6.66 23 -7 23 C-8.0735426 7.69775785 -8.0735426 7.69775785 -5.44140625 3.53515625 C-3.68390463 2.08884204 -2.05939797 0.96140262 0 0 Z " fill="#C9C9C9" transform="translate(337,363)"/>
<path d="M0 0 C2.625 0.375 2.625 0.375 5 1 C5 1.99 5 2.98 5 4 C3.35 4 1.7 4 0 4 C-0.33 6.31 -0.66 8.62 -1 11 C-1.33 11 -1.66 11 -2 11 C-2.05399736 9.54207116 -2.09279177 8.08357288 -2.125 6.625 C-2.15980469 5.40683594 -2.15980469 5.40683594 -2.1953125 4.1640625 C-2 2 -2 2 0 0 Z " fill="#0F0F0F" transform="translate(263,282)"/>
<path d="M0 0 C0.8125 1.6875 0.8125 1.6875 1 4 C-1.4375 6.75 -1.4375 6.75 -4 9 C-4.66 8.67 -5.32 8.34 -6 8 C-5.38125 7.236875 -4.7625 6.47375 -4.125 5.6875 C-1.94402948 3.00374191 -1.94402948 3.00374191 0 0 Z " fill="#C0C0C0" transform="translate(371,129)"/>
</svg>
